<?xml version="1.0" encoding="UTF-8"?>
<svg id="_图层_2" data-name="图层 2" xmlns="http://www.w3.org/2000/svg" viewBox="0 0 532.61 520">
    <defs>
        <style>
            .cls-1 {
            fill: #6a1b9a;
            }

            .cls-2 {
            fill: #00e676;
            }
        </style>
    </defs>
    <path class="cls-2" d="M388.39,166.97l-50.29-84.93c-18.39-31.05-62.9-32.22-82.89-2.17l-2.06,3.1L31.39,461.97h90l175.33-304.61,36.67,62.61,55-53Z"/>
    <g>
        <path class="cls-1" d="M530.39,111.97l-38,29-19-5-7-20,32-39c-1.35-.41-32.22-9.12-56,13-23.82,22.16-17.3,53.65-17,55l-85,87h72l48-48c22.42,5.79,45.95-1.68,60-19,18.48-22.8,10.72-50.57,10-53Z"/>
        <path class="cls-1" d="M409.39,243.8h-138v31l22,4v16l17,13,15-7,15,29-11,9,1,24,10,10-15,26-16-5-16,12v16l-22,5v34h138c53.96-14.89,89.38-65.39,85-118-3.86-46.32-37.93-86.39-85-99ZM389.39,407.53h-33.78v-110.44h32.78c23.62,6.91,40.46,27.57,42.11,51.33,1.81,26.15-15.13,50.89-41.11,59.11Z"/>
    </g>
</svg>