<?xml version="1.0" standalone="no"?><!DOCTYPE svg PUBLIC "-//W3C//DTD SVG 1.1//EN" "http://www.w3.org/Graphics/SVG/1.1/DTD/svg11.dtd"><svg t="1756112297859" class="icon" viewBox="0 0 1024 1024" version="1.1" xmlns="http://www.w3.org/2000/svg" p-id="5893" xmlns:xlink="http://www.w3.org/1999/xlink" width="200" height="200"><path d="M512 42.666667C252.8 42.666667 42.666667 252.8 42.666667 512c0 257.792 193.92 464.938667 454.485333 464.938667 22.656 0 45.44-3.2 63.573333-14.933334 21.973333-14.208 30.464-36.266667 29.866667-57.088-0.512-17.450667-7.253333-33.024-12.373333-43.221333a312.832 312.832 0 0 0-15.018667-25.813333l-1.152-1.834667c-10.410667-16.597333-15.957333-34.346667-14.933333-50.56 0.896-14.805333 7.466667-32.725333 29.952-51.498667 17.28-14.506667 40.021333-17.834667 79.146666-16.298666 5.888 0.213333 12.288 0.597333 19.072 1.024 33.109333 1.92 75.776 4.437333 115.541334-6.272 109.013333-29.44 183.04-109.013333 190.421333-218.453334C999.168 225.536 765.013333 42.666667 512 42.666667zM416 298.837333a85.333333 85.333333 0 1 1 170.666667 0 85.333333 85.333333 0 0 1-170.666667 0z m-201.386667 128a85.333333 85.333333 0 1 1 170.666667 0 85.333333 85.333333 0 0 1-170.666667 0z m490.154667-85.333333a85.333333 85.333333 0 1 1 0 170.666667 85.333333 85.333333 0 0 1 0-170.666667z" p-id="5894"></path></svg>