<?xml version="1.0" standalone="no"?><!DOCTYPE svg PUBLIC "-//W3C//DTD SVG 1.1//EN" "http://www.w3.org/Graphics/SVG/1.1/DTD/svg11.dtd"><svg t="1755765269925" class="icon" viewBox="0 0 1024 1024" version="1.1" xmlns="http://www.w3.org/2000/svg" p-id="39096" xmlns:xlink="http://www.w3.org/1999/xlink" width="200" height="200"><path d="M326.4 518.4v-150.4H268.8v147.2c0 22.4-12.8 32-28.8 32-12.8 0-19.2-3.2-25.6-12.8l-38.4 35.2c19.2 19.2 35.2 25.6 60.8 25.6 48 3.2 89.6-22.4 89.6-76.8z m172.8 22.4c0-28.8-16-48-51.2-51.2l-25.6-3.2c-12.8 0-12.8-6.4-12.8-9.6 0-3.2 3.2-9.6 16-9.6s28.8 3.2 35.2 9.6l32-32c-16-16-38.4-22.4-67.2-22.4-35.2 0-67.2 19.2-67.2 57.6 0 35.2 19.2 48 51.2 51.2l25.6 3.2c9.6 0 12.8 6.4 12.8 9.6 0 9.6-16 12.8-22.4 12.8-9.6 0-28.8 0-41.6-16L348.8 576c22.4 22.4 48 25.6 73.6 25.6 41.6-3.2 76.8-19.2 76.8-60.8z m169.6-28.8c0-35.2-3.2-51.2-19.2-67.2-9.6-9.6-28.8-22.4-54.4-22.4-28.8 0-44.8 9.6-54.4 22.4-12.8 16-19.2 32-19.2 67.2s3.2 51.2 19.2 67.2c9.6 9.6 28.8 22.4 54.4 22.4 28.8 0 44.8-12.8 54.4-22.4 16-19.2 19.2-35.2 19.2-67.2z m-51.2 0c0 16 0 28.8-6.4 35.2-3.2 3.2-6.4 6.4-12.8 6.4s-9.6-3.2-12.8-6.4c-6.4-6.4-6.4-19.2-6.4-35.2 0-16 0-28.8 6.4-35.2 3.2-3.2 6.4-6.4 12.8-6.4s9.6 3.2 12.8 6.4c6.4 6.4 6.4 16 6.4 35.2z m233.6 86.4v-108.8c0-19.2-3.2-35.2-16-48-9.6-9.6-22.4-16-38.4-16-12.8 0-28.8 6.4-38.4 16v-12.8H704v172.8h51.2v-102.4c0-19.2 12.8-22.4 22.4-22.4 6.4 0 22.4 3.2 22.4 22.4v102.4h51.2z" p-id="39097"></path><path d="M73.6 416C112 246.4 246.4 112 416 73.6v67.2C281.6 176 176 281.6 140.8 416H73.6z m0 192c38.4 169.6 172.8 304 342.4 342.4v-67.2c-134.4-35.2-240-140.8-275.2-275.2H73.6z m809.6 0c-35.2 134.4-140.8 240-275.2 275.2v67.2c169.6-38.4 304-172.8 342.4-342.4h-67.2z m67.2-192C912 246.4 777.6 112 608 73.6v67.2c134.4 35.2 240 140.8 275.2 275.2h67.2z" p-id="39098"></path></svg>