<?xml version="1.0" standalone="no"?><!DOCTYPE svg PUBLIC "-//W3C//DTD SVG 1.1//EN" "http://www.w3.org/Graphics/SVG/1.1/DTD/svg11.dtd"><svg t="1755764847330" class="icon" viewBox="0 0 1024 1024" version="1.1" xmlns="http://www.w3.org/2000/svg" p-id="27387" xmlns:xlink="http://www.w3.org/1999/xlink" width="200" height="200"><path d="M390.106453 5.046655V235.51058a212.834275 212.834275 0 0 1-18.235248 92.522013 159.474307 159.474307 0 0 1-51.610461 61.972927 247.151531 247.151531 0 0 1-78.189513 36.134052 537.771586 537.771586 0 0 1-98.914443 16.956761L106.955447 307.509528a280.324878 280.324878 0 0 0 34.6537-5.85412 115.871205 115.871205 0 0 0 34.586411-13.457747 85.456696 85.456696 0 0 0 28.934157-30.279932 100.933106 100.933106 0 0 0 10.766198-50.668419v-36.134052-53.292679-57.060849-55.849652zM974.105401 300.175056a96.357471 96.357471 0 0 1-22.070705 64.328032 172.057301 172.057301 0 0 1-60.22342 44.006834 296.406887 296.406887 0 0 1-86.062295 22.070706 782.6353 782.6353 0 0 1-99.452753 6.728874c-28.126692 0-50.937574 0-68.432645-0.942042s-30.549087-1.143909-39.229334-1.547641l-19.379156-137.605468c2.287817 0 13.996057 0.672887 35.12472 1.278486s34.855566 1.009331 41.449862 1.009331h29.203312q16.418452 0 32.096728-1.009331c14.197924-1.009331 23.147326-3.095282 26.915495-6.190563a12.381128 12.381128 0 0 0-1.61493-21.734262 184.303851 184.303851 0 0 0-27.319227-12.044684c-7.199895-2.758838-17.898804-7.199895-32.231305-13.457748a269.154948 269.154948 0 0 1-33.644369-16.687607 114.390853 114.390853 0 0 1-42.190038-41.449862 106.114338 106.114338 0 0 1-13.054015-52.283348 95.751873 95.751873 0 0 1 6.728874-35.124721 86.264161 86.264161 0 0 1 18.167959-28.665002q31.42384-33.106059 92.723879-51.946905T861.867788 0c26.10803 0 45.756341 0 59.1468 0.605599s22.743593 0.874754 28.26127 1.278486l19.042712 137.538178-27.790248-1.278486q-13.457747-0.605599-32.904193-0.605599c-11.842818 0-22.205283 0-30.952819 0.471022s-18.504403 0.807465-29.068734 1.413063a68.432646 68.432646 0 0 0-22.541727 4.306479 10.497043 10.497043 0 0 0-7.334472 9.689578 13.928769 13.928769 0 0 0 8.411092 12.044684 220.976212 220.976212 0 0 0 25.973452 11.708241l33.644369 13.457747a236.856354 236.856354 0 0 1 33.173347 16.351163 115.669339 115.669339 0 0 1 41.449862 39.700355 102.749901 102.749901 0 0 1 13.726902 53.494546zM505.977658 798.717308a226.830333 226.830333 0 0 1-18.908135 92.791169 219.024839 219.024839 0 0 1-134.577474 118.293599 307.644106 307.644106 0 0 1-94.204232 14.130635 315.247733 315.247733 0 0 1-93.396767-13.457747A218.95755 218.95755 0 0 1 29.5734 892.92154a234.164805 234.164805 0 0 1-2.287817-184.169273 215.323958 215.323958 0 0 1 53.830989-74.017611 224.542515 224.542515 0 0 1 77.180182-45.419897 296.070443 296.070443 0 0 1 98.645288-15.139966 313.632803 313.632803 0 0 1 95.751873 13.457747 222.860297 222.860297 0 0 1 78.996977 44.141412 207.653042 207.653042 0 0 1 56.186096 75.09423 228.781706 228.781706 0 0 1 18.10067 91.849126z m-178.853463 1.143909a137.874622 137.874622 0 0 0-6.728874-40.911552 68.970955 68.970955 0 0 0-21.465107-33.240636 65.673807 65.673807 0 0 0-17.764226-10.698909 64.193455 64.193455 0 0 0-24.156657-4.30648 60.021553 60.021553 0 0 0-23.214614 4.30648 69.038244 69.038244 0 0 0-20.186621 13.457747 79.602576 79.602576 0 0 0-18.63898 31.625706 117.889867 117.889867 0 0 0-6.728874 38.489158 125.628072 125.628072 0 0 0 6.728874 39.633066 75.699829 75.699829 0 0 0 20.186621 32.298594 58.541201 58.541201 0 0 0 19.042712 12.24655 66.481272 66.481272 0 0 0 24.4931 4.306479 60.559863 60.559863 0 0 0 22.676305-4.306479 65.53923 65.53923 0 0 0 19.244579-11.977395 73.479301 73.479301 0 0 0 20.186621-32.567749 126.233671 126.233671 0 0 0 6.325141-38.35458zM1014.545932 585.883033V977.907215l-120.37955 44.141412q-59.954265-76.507294-108.604022-132.289657t-66.413983-75.16152l-2.556972 1.278486v107.66198c0 41.180707 0.336444 70.182153 0.336444 88.013668h-161.492969v-87.475358q0-61.434617 0.336443-133.097122c0-20.186621 0-44.612433-0.336443-73.54659s-0.403732-60.559863-0.605599-95.146274l127.041136-46.698384q25.435143 29.876199 64.328032 74.017611t105.037719 116.14036l1.884084-1.009331q0-37.479827-0.336443-84.447365t0-94.204232z" p-id="27388"></path></svg>