<?xml version="1.0" standalone="no"?><!DOCTYPE svg PUBLIC "-//W3C//DTD SVG 1.1//EN" "http://www.w3.org/Graphics/SVG/1.1/DTD/svg11.dtd"><svg t="1755850708413" class="icon" viewBox="0 0 1024 1024" version="1.1" xmlns="http://www.w3.org/2000/svg" p-id="994" xmlns:xlink="http://www.w3.org/1999/xlink" width="200" height="200"><path d="M171.79534222 528.31118222L171.79534222 528.31118222 171.79534222 528.31118222 174.12551111 528.31118222 171.79534222 528.31118222Z" p-id="995"></path><path d="M551.61287111 393.16138667c-48.93354667 0-69.90506667 51.26371555-69.90506666 104.8576 0 53.59388445 23.30168889 102.52743111 69.90506666 102.52743111 46.60337778 0 69.90506667-48.93354667 69.90506667-104.8576C621.51793778 446.75527111 600.54641778 393.16138667 551.61287111 393.16138667z" p-id="996"></path><path d="M821.91246222 153.15399111L202.08753778 153.15399111c-102.52743111 0-186.41351111 83.88608-186.41351111 186.41351111l0 372.82702223c0 102.52743111 83.88608 186.41351111 186.41351111 186.4135111l619.82492444 0c102.52743111 0 186.41351111-83.88608 186.41351111-186.4135111l0-372.82702223C1008.32597333 237.04007111 924.43989333 153.15399111 821.91246222 153.15399111zM213.73838222 542.29219555c0 69.90506667-32.62236445 90.87658667-79.22574222 90.87658667-11.65084445 0-25.63185778-2.33016889-34.95253333-4.66033777l4.66033778-32.62236445c6.99050667 2.33016889 16.31118222 4.66033778 25.63185777 4.66033778 25.63185778 0 41.94304-11.65084445 41.94304-58.25422223l0-177.09283555 39.61287111 0L211.40821333 542.29219555zM318.59598222 633.16878222c-25.63185778 0-51.26371555-6.99050667-62.91456-16.31118222l9.32067556-32.62236445c13.98101333 9.32067555 34.95253333 16.31118222 58.25422222 16.31118223 32.62236445 0 48.93354667-16.31118222 48.93354667-39.61287111 0-23.30168889-13.98101333-37.28270222-44.27320889-48.93354667-39.61287111-16.31118222-65.24472889-39.61287111-65.24472889-76.89557333 0-41.94304 32.62236445-74.56540445 86.21624889-74.56540445 25.63185778 0 44.27320889 6.99050667 55.92405333 11.65084445l-9.32067556 32.62236444c-9.32067555-4.66033778-25.63185778-11.65084445-46.60337777-11.65084444-32.62236445 0-44.27320889 18.64135111-44.27320889 34.95253333 0 23.30168889 13.98101333 32.62236445 48.93354666 48.93354667 41.94304 18.64135111 62.91456 41.94304 62.91456 79.22574222C411.80273778 600.54641778 379.18037333 633.16878222 318.59598222 633.16878222zM551.61287111 633.16878222c-67.57489778 0-111.84810667-53.59388445-111.84810666-135.14979555 0-83.88608 46.60337778-137.47996445 114.17827555-137.47996445 69.90506667 0 109.51793778 58.25422222 109.51793778 135.14979556C663.46097778 586.56540445 614.52743111 633.16878222 551.61287111 633.16878222zM896.47786667 630.83861333l-39.61287112 0-69.90506666-123.49895111c-16.31118222-27.96202667-32.62236445-60.58439111-44.27320889-88.54641777l-2.33016889 0c2.33016889 32.62236445 2.33016889 67.57489778 2.33016889 114.17827555l0 100.19726222-37.28270222 0L705.40401778 365.19936l44.27320889 0 69.90506666 123.49895111c16.31118222 27.96202667 32.62236445 60.58439111 41.94304 88.54641778l0 0c-2.33016889-34.95253333-4.66033778-69.90506667-4.66033778-111.84810667l0-97.86709333 37.28270223 0L894.14769778 630.83861333z" p-id="997"></path></svg>